<svg width="500" height="500" viewBox="0 0 500 500" fill="none" xmlns="http://www.w3.org/2000/svg">
<path d="M243.152 311.09H233.143C232.817 293.023 233.631 279.514 235.584 270.562C237.7 261.611 242.99 249.322 251.453 233.697C260.079 217.91 265.695 205.296 268.299 195.855C271.066 186.253 272.449 174.452 272.449 160.455C272.449 138.808 268.217 122.857 259.754 112.604C251.29 102.35 241.281 97.2227 229.725 97.2227C220.936 97.2227 213.53 99.5827 207.508 104.303C202.951 107.883 200.672 111.627 200.672 115.533C200.672 118.137 202.218 122.206 205.311 127.74C212.309 140.273 215.809 150.934 215.809 159.723C215.809 167.698 213.042 174.371 207.508 179.742C202.137 185.113 195.382 187.799 187.244 187.799C178.13 187.799 170.48 184.625 164.295 178.277C158.11 171.767 155.018 163.222 155.018 152.643C155.018 133.437 163.318 116.591 179.92 102.105C196.521 87.6198 219.715 80.377 249.5 80.377C281.076 80.377 305.083 87.9453 321.521 103.082C338.123 118.056 346.424 136.204 346.424 157.525C346.424 172.988 342.192 187.311 333.729 200.494C325.265 213.515 308.908 228.001 284.656 243.951C268.38 254.693 257.638 264.296 252.43 272.76C247.384 281.061 244.292 293.837 243.152 311.09ZM240.467 346.734C251.372 346.734 260.649 350.559 268.299 358.209C275.949 365.859 279.773 375.136 279.773 386.041C279.773 396.946 275.949 406.305 268.299 414.117C260.649 421.767 251.372 425.592 240.467 425.592C229.562 425.592 220.285 421.767 212.635 414.117C204.985 406.305 201.16 396.946 201.16 386.041C201.16 375.136 204.985 365.859 212.635 358.209C220.285 350.559 229.562 346.734 240.467 346.734Z" fill="black"/>
</svg>
