<svg width="1080" height="1080" viewBox="0 0 1080 1080" fill="none" xmlns="http://www.w3.org/2000/svg">
<path d="M719.5 110.5L850.5 240L850.5 920.5C850.5 948.114 828.114 970.5 800.5 970.5L279.5 970.5C251.886 970.5 229.5 948.114 229.5 920.5L229.5 160.5C229.5 132.886 251.886 110.5 279.5 110.5L719.5 110.5Z" fill="#CCCCCC"/>
<path d="M334 621.427C334 612.907 339.465 606 346.207 606H638.793C645.535 606 651 612.907 651 621.427C651 629.947 645.535 636.854 638.793 636.854H346.207C339.465 636.854 334 629.947 334 621.427Z" fill="#6F6F6F"/>
<path d="M334 728.663C334 720.143 339.465 713.236 346.207 713.236H715.793C722.535 713.236 728 720.143 728 728.663C728 737.184 722.535 744.091 715.793 744.091H346.207C339.465 744.091 334 737.184 334 728.663Z" fill="#6F6F6F"/>
<path d="M334 336.427C334 327.907 339.465 321 346.207 321H638.793C645.535 321 651 327.907 651 336.427C651 344.947 645.535 351.854 638.793 351.854H346.207C339.465 351.854 334 344.947 334 336.427Z" fill="#6F6F6F"/>
<path d="M334 443.663C334 435.143 339.465 428.236 346.207 428.236H715.793C722.535 428.236 728 435.143 728 443.663C728 452.184 722.535 459.091 715.793 459.091H346.207C339.465 459.091 334 452.184 334 443.663Z" fill="#6F6F6F"/>
<path d="M720 110L851 239H770C742.386 239 720 216.614 720 189V110Z" fill="#6E6E6E"/>
</svg>
