<svg width="1080" height="1080" viewBox="0 0 1080 1080" fill="none" xmlns="http://www.w3.org/2000/svg">
<path fill-rule="evenodd" clip-rule="evenodd" d="M199.977 538.524C199.977 694.117 304.638 825.265 447.4 865.407C446.501 860.191 446.033 854.828 446.033 849.355V757.816C431.118 757.857 414.7 756.918 399.404 754.224C386.192 751.898 371.892 747.946 359.892 740.82C347.565 733.499 344.745 727.966 336.485 710.032C335.993 706.361 330.986 696.593 329.98 695.403C328.822 694.034 326.926 692.564 323.872 691.266C321.359 690.197 317.46 689.248 313.033 688.17C305.734 686.394 296.998 684.267 290.668 680.68C277.626 673.29 277.362 671.047 277.362 664.16C277.362 663.88 277.361 663.605 277.36 663.334C277.337 656.962 277.324 653.218 290.668 646.546L291.053 646.502C303.079 645.121 323.008 642.832 339.963 650.04L340.346 650.202C358.478 657.909 380.23 667.154 384.21 694.33C384.583 694.675 385.287 695.228 386.53 695.966C390.791 698.496 398.081 701.022 408.449 702.847C422.25 705.277 438.115 705.904 452.135 705.564C457.137 692.412 465.009 680.674 474.987 671.116H458.656C385.419 671.116 326.048 611.745 326.048 538.508V503.886C326.048 462.593 346.801 424.793 380.081 402.413C379.504 400.529 379.342 398.464 379.709 396.318C382.673 379.012 387.001 361.967 392.652 345.343L405.022 308.96L430.03 327.355L430.032 327.356C434.98 330.996 437.454 332.816 439.87 334.703C447.094 340.345 453.944 346.45 460.378 352.979C462.53 355.163 464.621 357.412 468.805 361.911C472.905 366.32 474.981 368.553 475.931 370.535C518.329 363.665 561.655 364.352 603.875 372.601C604.606 371.803 605.432 370.915 606.361 369.916L606.363 369.914L606.363 369.913C610.547 365.414 612.639 363.165 614.791 360.981C621.224 354.452 628.074 348.347 635.298 342.705C637.714 340.818 640.188 338.998 645.137 335.358L645.138 335.357L670.146 316.962L682.516 353.345C688.168 369.969 692.496 387.014 695.459 404.32C695.6 405.145 695.663 405.958 695.655 406.753C725.739 428.909 744.92 463.819 746.575 502.344L747.898 533.162C751.127 608.375 691.023 671.116 615.74 671.116H604.883C622.726 688.209 633.836 712.274 633.836 738.934V849.355C633.836 854.737 633.383 860.014 632.514 865.149C774.808 824.705 879.024 693.785 879.024 538.524C879.024 351.01 727.014 199 539.5 199C351.986 199 199.977 351.01 199.977 538.524ZM383.991 694.113C383.871 693.983 383.833 693.916 383.844 693.915C383.855 693.913 383.915 693.978 383.991 694.113Z" fill="white"/>
</svg>
