<svg viewBox="0 0 1080 1080" fill="none" xmlns="http://www.w3.org/2000/svg">
<path opacity="0.914" d="M579.799 225.698C575.343 217.673 568.51 209.701 558.619 204.097C548.727 198.492 538.372 196.727 529.187 197.034C522.524 197.256 516.974 198.859 512.908 200.493C462.161 220.889 410.161 238.961 356.9 254.709C327.688 263.346 313.219 296.357 326.986 323.745C362.296 393.99 396.131 464.964 428.484 536.667C434.671 552.877 433.518 561.556 431.951 565.872C430.626 569.523 427.095 575.334 416.402 581.928C348.185 588.33 280.286 596.711 212.699 607.08C199.067 609.171 186.985 616.904 179.367 628.325L179.072 628.768C170.219 642.041 168.397 658.768 174.128 673.609C192.022 719.943 209.364 766.357 226.159 812.85C235.951 839.955 267.031 852.934 293.269 840.458C361.588 807.973 428.624 772.47 494.378 733.957C504.785 731.119 513.389 732.043 522.254 737.162C542.133 779.576 564.495 820.352 589.343 859.476C602.498 880.188 628.277 887.377 649.761 878.367C658.301 874.785 667.004 871.625 675.878 868.888C686.926 865.48 699.225 857.242 705.795 842.608C709.375 834.632 711.402 826.289 712.05 817.86C712.385 813.49 712.085 809.515 711.508 806.098C703.621 759.405 695.934 712.678 688.445 665.921C689.644 657.269 692.25 652.488 694.603 649.64C697.066 646.66 701.55 643.02 710.594 640.167C764.958 634.049 818.452 623.728 871.053 609.197C899.017 601.471 913.774 571.57 903.913 544.955C893.813 517.695 884.275 490.2 875.297 462.47C866.524 435.375 836.55 421.383 810.116 432.178C756.83 453.939 702.94 474.351 648.445 493.415C636.551 494.662 630.774 492.427 628.027 490.751C625.328 489.104 620.832 485.122 616.731 474.181C605.359 397.292 594.926 320.278 585.436 243.13C584.845 238.325 583.364 232.12 579.799 225.698Z" stroke="white" stroke-width="84" stroke-linejoin="round"/>
</svg>
