<svg width="1080" height="1080" viewBox="0 0 1080 1080" fill="none" xmlns="http://www.w3.org/2000/svg">
<rect width="1080" height="1080" fill="black"/>
<path opacity="0.914" fill-rule="evenodd" clip-rule="evenodd" d="M475 98.0469C483.48 97.5355 489.314 101.202 492.5 109.047C495.436 129.101 498.603 149.101 502 169.047C502.865 170.13 503.865 170.296 505 169.547C517 164.88 529 160.214 541 155.547C547.313 154.21 552.98 155.543 558 159.547C567.33 184.361 575.664 209.528 583 235.047C582.261 242.948 578.261 248.448 571 251.547C555.665 254.114 540.332 256.614 525 259.047C526.511 268.461 528.344 277.794 530.5 287.047C544.768 294.183 557.434 303.517 568.5 315.047C581.596 330.139 593.929 345.806 605.5 362.047C617.37 382.456 628.703 403.123 639.5 424.047C663.719 380.155 695.552 342.655 735 311.547C777.478 280.518 824.145 271.852 875 285.547C907.019 296.903 931.853 317.069 949.5 346.047C976.005 389.908 985.339 437.241 977.5 488.047C968.893 546.579 945.226 597.913 906.5 642.047C905.719 643.276 905.219 644.609 905 646.047C916.855 692.134 929.022 738.134 941.5 784.047C942.391 789.714 941.391 795.048 938.5 800.047C924.165 819.724 908.331 838.224 891 855.547C890.333 856.214 889.667 856.214 889 855.547C880.667 848.547 872.333 841.547 864 834.547C874.079 824.473 883.412 813.806 892 802.547C866.223 798.236 840.223 795.903 814 795.547C800 784.88 786 774.214 772 763.547C794.519 761.893 817.185 761.559 840 762.547C860.7 763.788 881.367 765.121 902 766.547C891.667 729.547 881.333 692.547 871 655.547C863.932 652.613 856.598 650.613 849 649.547C798.562 640.412 747.895 638.412 697 643.547C674.983 646.774 652.983 649.774 631 652.547C612.832 638.54 594.832 624.374 577 610.047C592.111 589.501 607.944 569.501 624.5 550.047C621.592 564.593 618.926 579.259 616.5 594.047C615.833 603.714 615.833 613.38 616.5 623.047C682.476 606.591 749.309 602.091 817 609.547C838.461 612.458 859.794 615.791 881 619.547C920.924 572.67 942.591 518.337 946 456.547C945.668 427.055 938.835 399.221 925.5 373.047C893.836 318.478 848.003 301.312 788 321.547C755.05 336.94 727.55 359.107 705.5 388.047C677.682 424.329 655.516 463.995 639 507.047C635.658 492.402 627.992 480.736 616 472.047C618.483 467.823 618.649 463.489 616.5 459.047C601.598 422.558 582.598 388.558 559.5 357.047C548.966 344.846 537.466 333.679 525 323.547C509.408 312.525 497.241 315.358 488.5 332.047C484.048 340.083 480.381 348.416 477.5 357.047C468.563 350.614 460.063 343.614 452 336.047C451.372 329.24 453.039 322.906 457 317.047C453.4 308.681 449.4 300.514 445 292.547C435.688 297.039 426.354 301.873 417 307.047C392.344 287.218 368.177 266.885 344.5 246.047C341.634 238.75 339.467 231.25 338 223.547C338.422 214.46 343.089 209.127 352 207.547C369.043 205.913 386.043 203.913 403 201.547C393.217 182.815 384.384 163.648 376.5 144.047C375.692 135.501 379.192 129.334 387 125.547C416.452 116.358 445.785 107.191 475 98.0469ZM459 138.047C460.624 137.907 461.79 138.574 462.5 140.047C464.921 159.748 467.588 179.414 470.5 199.047C473.751 208.929 480.585 213.095 491 211.547C505.673 206.435 520.173 200.935 534.5 195.047C537.138 203.294 539.971 211.461 543 219.547C529.578 223.365 515.911 226.031 502 227.547C493.325 229.891 488.658 235.557 488 244.547C489.946 256.722 491.946 268.889 494 281.047C493.93 282.319 493.597 283.485 493 284.547C489.756 285.517 486.59 286.684 483.5 288.047C476.751 277.555 470.751 266.555 465.5 255.047C459.605 250.299 453.105 249.133 446 251.547C429.013 261.538 411.68 270.705 394 279.047C389.492 266.524 384.826 254.024 380 241.547C380.333 241.047 380.667 240.547 381 240.047C398.579 237.334 416.245 235.168 434 233.547C444.832 228.03 447.999 219.53 443.5 208.047C435.068 189.349 426.234 170.849 417 152.547C431.349 148.376 445.349 143.543 459 138.047Z" fill="#FEFEFE"/>
<path opacity="0.907" fill-rule="evenodd" clip-rule="evenodd" d="M119 103.047C120.808 103.038 122.475 103.538 124 104.547C284.777 237.689 445.277 371.189 605.5 505.047C608.92 511.874 608.587 518.541 604.5 525.047C581.313 554.746 557.646 584.08 533.5 613.047C532.833 614.047 532.833 615.047 533.5 616.047C675.907 726.451 817.74 837.617 959 949.547C960.711 950.68 961.211 952.18 960.5 954.047C953.62 961.926 947.12 970.092 941 978.547C939.221 978.503 937.555 977.836 936 976.547C788.409 860.501 640.909 744.334 493.5 628.047C490.167 621.38 490.167 614.714 493.5 608.047C516.824 576.91 540.991 546.41 566 516.547C410.163 387.539 254.496 258.372 99 129.047C105.308 120.077 111.975 111.41 119 103.047Z" fill="#FEFEFE"/>
<path opacity="0.914" fill-rule="evenodd" clip-rule="evenodd" d="M435 450.047C446.271 458.646 457.271 467.646 468 477.047C468.723 483.044 469.556 489.044 470.5 495.047C470.965 496.478 471.799 497.644 473 498.547C488.667 506.71 503.667 515.876 518 526.047C511.351 535.357 504.351 544.357 497 553.047C479.779 541.6 461.779 531.434 443 522.547C391.517 507.716 339.017 499.216 285.5 497.047C259.392 496.318 233.892 499.818 209 507.547C170.139 521.098 153.639 548.265 159.5 589.047C161.229 599.295 163.895 609.295 167.5 619.047C183.382 652.988 205.215 682.488 233 707.547C267.756 737.521 306.59 761.021 349.5 778.047C391.616 734.912 439.116 699.078 492 670.547C493.333 669.88 494.667 669.88 496 670.547C505.29 677.502 514.29 684.835 523 692.547C467.897 720.326 419.064 756.492 376.5 801.047C387.32 838.312 399.986 874.979 414.5 911.047C476.488 847.946 550.655 805.28 637 783.047C649.087 790.967 660.754 799.467 672 808.547C599.883 825.278 534.55 855.944 476 900.547C463.034 911.179 451.034 922.846 440 935.547C529.737 954.668 618.737 951.334 707 925.547C732.22 917.421 756.553 907.254 780 895.047C790.381 901.591 800.048 909.091 809 917.547C752.665 950.325 691.998 970.325 627 977.547C551.471 986.589 476.804 981.923 403 963.547C397.902 962.114 394.402 958.947 392.5 954.047C375.697 906.638 358.697 859.304 341.5 812.047C264.28 783.63 201.947 735.963 154.5 669.047C143.389 650.488 134.722 630.822 128.5 610.047C113.007 539.511 139.507 493.345 208 471.547C254.381 460.741 301.048 459.407 348 467.547C376.903 471.594 405.403 477.428 433.5 485.047C434.832 473.423 435.332 461.757 435 450.047Z" fill="#FEFEFE"/>
</svg>
