<svg width="1080" height="1080" viewBox="0 0 1080 1080" fill="none" xmlns="http://www.w3.org/2000/svg">
<path d="M110 252C110 224.386 132.386 202 160 202L535 202C562.614 202 585 224.386 585 252L585 821C585 848.614 562.614 871 535 871L160 871C132.386 871 110 848.614 110 821L110 252Z" fill="#DB263C"/>
<path d="M133 277C133 249.386 155.386 227 183 227L893 227C920.614 227 943 249.386 943 277L943 648C943 675.614 920.614 698 893 698L183 698C155.386 698 133 675.614 133 648L133 277Z" fill="#CCCCCC"/>
<path d="M110 331C110 303.386 132.386 281 160 281L920 281C947.614 281 970 303.386 970 331L970 828C970 855.614 947.614 878 920 878L160 878C132.386 878 110 855.614 110 828L110 331Z" fill="#FF9B00"/>
</svg>
