<svg width="1080" height="1080" viewBox="0 0 1080 1080" fill="none" xmlns="http://www.w3.org/2000/svg">
<path d="M110 252C110 224.386 132.386 202 160 202L535 202C562.614 202 585 224.386 585 252L585 821C585 848.614 562.614 871 535 871L160 871C132.386 871 110 848.614 110 821L110 252Z" fill="#DB263C"/>
<path d="M110 307C110 279.386 132.386 257 160 257L920 257C947.614 257 970 279.386 970 307L970 828C970 855.614 947.614 878 920 878L160 878C132.386 878 110 855.614 110 828L110 307Z" fill="#FF9B00"/>
<path d="M175.108 829.032C174.021 838.913 181.15 847.805 191.032 848.892C200.913 849.979 209.805 842.85 210.892 832.968L175.108 829.032ZM390.816 616.564C392.232 606.725 385.404 597.6 375.564 596.184L215.217 573.104C205.377 571.687 196.252 578.516 194.836 588.356C193.419 598.195 200.248 607.32 210.088 608.736L352.619 629.252L332.103 771.783C330.687 781.623 337.516 790.748 347.355 792.164C357.195 793.58 366.32 786.752 367.736 776.912L390.816 616.564ZM210.892 832.968C215.787 788.473 239.028 751.904 271.632 718.823C304.587 685.386 345.228 657.265 383.784 628.411L362.215 599.589C325.272 627.235 281.413 657.614 245.992 693.552C210.222 729.846 181.213 773.527 175.108 829.032L210.892 832.968Z" fill="white"/>
</svg>
