<svg width="1080" height="1080" viewBox="0 0 1080 1080" fill="none" xmlns="http://www.w3.org/2000/svg">
<path fill-rule="evenodd" clip-rule="evenodd" d="M539.5 879.024C727.014 879.024 879.024 727.014 879.024 539.5C879.024 351.986 727.014 199.976 539.5 199.976C351.986 199.976 199.977 351.986 199.977 539.5C199.977 727.014 351.986 879.024 539.5 879.024ZM342.295 441.829C407.291 434.298 497.555 428.114 550.127 435.573C612.774 444.461 679.267 469.541 725.567 508.08C741.117 521.024 764.534 522.477 779.099 508.434C792.206 495.795 793.494 474.991 780.269 462.475C721.975 407.304 643.61 381.768 570.593 371.409C495.342 360.732 386.292 364.579 328.387 373.073C317.787 374.628 308.971 381.725 304.526 391.472C293.16 416.392 315.088 444.982 342.295 441.829ZM525.027 567.902C478.236 561.259 419.015 572.114 376.398 581.274C356.34 585.585 336.928 572.363 333.741 552.096C330.761 533.147 343.19 515.157 362.179 512.448C407.486 505.984 469.781 501.805 525.027 509.648C587.273 518.485 656.241 532.66 706.804 579.115C718.11 589.502 717.433 606.97 706.977 618.212C694.363 631.772 672.7 630.937 658.23 619.379C622.772 591.055 575.479 575.065 525.027 567.902ZM396.019 677.529C426.181 671.14 464.973 664.724 498.949 669.553C537.12 674.979 577.739 697.716 606.649 723.058C619.449 734.278 639.235 735.518 651.481 723.697C662.338 713.216 663.505 695.972 652.45 685.701C611.784 647.919 558.477 630.842 510.01 623.953C464.107 617.429 418.88 619.501 384.823 624.417C371.859 626.289 362.697 637.677 362.697 650.775C362.697 668.37 378.805 681.175 396.019 677.529Z" fill="white"/>
</svg>
