<svg width="1080" height="1080" viewBox="0 0 1080 1080" fill="none" xmlns="http://www.w3.org/2000/svg">
<path d="M513.351 536.102C513.351 552.467 504.756 567.629 490.715 576.035L196.372 752.239C171.989 766.836 141 749.27 141 720.852V720.852C141 707.982 147.763 696.059 158.808 689.454L411.216 538.531C411.883 538.132 412.658 538.851 412.311 539.546V539.546C411.944 540.28 410.837 540.019 410.837 539.198V532.531C410.837 531.694 411.966 531.428 412.339 532.177V532.177C412.689 532.877 411.921 533.606 411.24 533.221L159.72 390.879C148.152 384.332 141 372.067 141 358.775V358.775C141 330.404 171.689 312.653 196.282 326.799L490.015 495.758C504.452 504.062 513.351 519.447 513.351 536.102V536.102Z" fill="white"/>
<path d="M901.734 678.596C921.973 678.596 938.379 695.003 938.379 715.242V715.242C938.379 735.481 921.973 751.887 901.734 751.887H548.996C528.757 751.887 512.35 735.481 512.35 715.242V715.242C512.35 695.003 528.757 678.596 548.996 678.596H901.734Z" fill="white"/>
</svg>
