<svg width="1080" height="1080" viewBox="0 0 1080 1080" fill="none" xmlns="http://www.w3.org/2000/svg">
<path fill-rule="evenodd" clip-rule="evenodd" d="M147.137 454.475C144 473.107 144 495.404 144 540C144 584.596 144 606.893 147.137 625.525C163.125 720.479 237.521 794.875 332.475 810.863C351.107 814 373.404 814 418 814H661C705.596 814 727.893 814 746.525 810.863C841.479 794.875 915.875 720.479 931.863 625.525C935 606.893 935 584.596 935 540C935 495.404 935 473.107 931.863 454.475C915.875 359.521 841.479 285.125 746.525 269.137C727.893 266 705.596 266 661 266H418C373.404 266 351.107 266 332.475 269.137C237.521 285.125 163.125 359.521 147.137 454.475ZM671.348 556.98C685.208 549.391 685.208 529.482 671.348 521.894L488.004 421.516C474.676 414.219 458.4 423.863 458.4 439.058V639.815C458.4 655.01 474.676 664.655 488.004 657.358L671.348 556.98Z" fill="white"/>
</svg>
