<svg width="2560" height="1440" viewBox="0 0 2560 1440" fill="none" xmlns="http://www.w3.org/2000/svg">
<g clip-path="url(#clip0_1_2)">
<rect width="2560" height="1440" fill="black"/>
<path fill-rule="evenodd" clip-rule="evenodd" d="M1597.65 1298.88C1403.04 1303.64 1305.59 1076.39 1153.39 955.007C990.614 825.181 709.305 781.188 688.791 573.992C668.278 366.795 910.997 244.093 1069.66 109.267C1193.73 3.83362 1332.89 -54.9643 1487.83 -105.004C1722.39 -180.759 1971.79 -375.897 2184.1 -250.653C2400.82 -122.801 2442.2 189.679 2410.5 439.302C2383.37 652.913 2181.68 776.994 2033.73 933.446C1898.27 1076.69 1794.75 1294.05 1597.65 1298.88Z" fill="url(#paint0_radial_1_2)"/>
<path fill-rule="evenodd" clip-rule="evenodd" d="M2562.87 773.588C2756.96 828.584 2966.59 829.309 3110.75 970.425C3277.37 1133.52 3391.93 1349.65 3389.55 1582.79C3386.88 1845.45 3304.98 2121.3 3097.4 2282.24C2888.59 2444.13 2604.37 2433.9 2343.18 2394.06C2087.39 2355.04 1814.14 2281.76 1672.91 2064.95C1537.4 1856.94 1637.17 1595.61 1662.14 1348.61C1688.64 1086.43 1598.4 746.629 1820.51 604.836C2042.87 462.884 2309.05 701.67 2562.87 773.588Z" fill="#FFED47"/>
<path fill-rule="evenodd" clip-rule="evenodd" d="M2378.15 -521.505C2626.1 -480.82 2779.65 -261.47 2836.1 -16.9876C2904.76 280.431 2950.69 650.472 2682.5 796.766C2411.61 944.532 2117.31 713.555 1901.97 492.561C1716.5 302.219 1596.57 38.4976 1709.44 -201.86C1825.42 -448.863 2108.48 -565.755 2378.15 -521.505Z" fill="#DB3F25"/>
<path fill-rule="evenodd" clip-rule="evenodd" d="M503.431 -675.572C671.636 -603.843 701.308 -380.045 835.764 -256.112C974.543 -128.196 1241.79 -128.664 1293.66 52.8075C1344.79 231.7 1157.96 385.773 1065.34 547.137C980.773 694.475 923.519 865.877 777.31 952.386C628.21 1040.61 444.947 1044.59 274.206 1015.24C108.038 986.677 -29.733 891.015 -165.036 790.413C-320.48 674.837 -514.063 576.637 -566.484 390.163C-620.237 198.951 -520.57 3.63121 -436.848 -176.484C-351.979 -359.063 -261.641 -553.851 -83.8006 -648.247C93.6261 -742.423 318.658 -754.365 503.431 -675.572Z" fill="#521955"/>
<path fill-rule="evenodd" clip-rule="evenodd" d="M784.787 651.176C979.789 657.585 1170.29 696.691 1336.25 799.279C1535.11 922.207 1785.82 1056.08 1815.06 1288.04C1844.37 1520.5 1586.56 1677.39 1472.76 1882.2C1368.41 2070.02 1348.2 2307.51 1176.69 2436.93C992.211 2576.15 736.838 2682.06 520.47 2600.83C306.201 2520.38 309.332 2204.23 141.749 2048.35C-30.075 1888.52 -352.291 1912.36 -449.357 1698.71C-547.525 1482.63 -473.449 1202.23 -327.785 1014.86C-190.522 838.297 64.361 833.952 276.936 764.464C445.931 709.221 607.087 645.336 784.787 651.176Z" fill="#DB263C"/>
</g>
<defs>
<radialGradient id="paint0_radial_1_2" cx="0" cy="0" r="1" gradientUnits="userSpaceOnUse" gradientTransform="translate(1563.1 522.917) rotate(-94.4732) scale(776.678 875.684)">
<stop stop-color="#FF9B00"/>
</radialGradient>
<clipPath id="clip0_1_2">
<rect width="2560" height="1440" fill="white"/>
</clipPath>
</defs>
</svg>
